<mxfile host="app.diagrams.net" modified="2023-08-01T18:39:43.366Z" agent="Mozilla/5.0 (Macintosh; Intel Mac OS X 10_15_7) AppleWebKit/605.1.15 (KHTML, like Gecko) Version/16.5.2 Safari/605.1.15" version="21.6.6" etag="RgZEXsv7weYzPRd7ClTY" type="github">
  <diagram name="Page-1" id="R11hjLXXTMf-NCdQc6DS">
    <mxGraphModel>
      <root>
        <mxCell id="0" />
        <mxCell id="1" parent="0" />
      </root>
    </mxGraphModel>
  </diagram>
</mxfile>
